<svg xmlns="http://www.w3.org/2000/svg" viewBox="0 0 1440 560" preserveAspectRatio="xMidYMid slice"><g stroke="#C9A227" fill="none"><line x1="524.8" y1="183.0" x2="532.0" y2="164.0" stroke-width="0.8" stroke-opacity="0.39"/><line x1="524.8" y1="183.0" x2="468.4" y2="195.0" stroke-width="0.8" stroke-opacity="0.33"/><line x1="524.8" y1="183.0" x2="517.8" y2="248.1" stroke-width="0.8" stroke-opacity="0.31"/><line x1="591.5" y1="263.1" x2="626.4" y2="316.1" stroke-width="0.8" stroke-opacity="0.32"/><line x1="591.5" y1="263.1" x2="517.8" y2="248.1" stroke-width="0.8" stroke-opacity="0.30"/><line x1="555.0" y1="444.4" x2="540.0" y2="522.4" stroke-width="0.8" stroke-opacity="0.29"/><line x1="555.0" y1="444.4" x2="623.6" y2="503.1" stroke-width="0.8" stroke-opacity="0.27"/><line x1="555.0" y1="444.4" x2="643.4" y2="413.6" stroke-width="0.8" stroke-opacity="0.27"/><line x1="172.6" y1="229.7" x2="137.1" y2="218.1" stroke-width="0.8" stroke-opacity="0.36"/><line x1="172.6" y1="229.7" x2="248.4" y2="241.6" stroke-width="0.8" stroke-opacity="0.30"/><line x1="172.6" y1="229.7" x2="244.0" y2="283.7" stroke-width="0.8" stroke-opacity="0.28"/><line x1="1224.8" y1="171.4" x2="1271.3" y2="169.3" stroke-width="0.8" stroke-opacity="0.34"/><line x1="1224.8" y1="171.4" x2="1173.2" y2="164.6" stroke-width="0.8" stroke-opacity="0.34"/><line x1="532.0" y1="164.0" x2="518.4" y2="109.9" stroke-width="0.8" stroke-opacity="0.33"/><line x1="1286.6" y1="545.3" x2="1277.1" y2="504.1" stroke-width="0.8" stroke-opacity="0.35"/><line x1="1286.6" y1="545.3" x2="1334.8" y2="518.1" stroke-width="0.8" stroke-opacity="0.33"/><line x1="421.2" y1="114.6" x2="381.8" y2="75.8" stroke-width="0.8" stroke-opacity="0.33"/><line x1="421.2" y1="114.6" x2="381.3" y2="159.0" stroke-width="0.8" stroke-opacity="0.32"/><line x1="1420.1" y1="518.8" x2="1365.4" y2="470.6" stroke-width="0.8" stroke-opacity="0.30"/><line x1="1420.1" y1="518.8" x2="1395.9" y2="449.7" stroke-width="0.8" stroke-opacity="0.30"/><line x1="1420.1" y1="518.8" x2="1334.8" y2="518.1" stroke-width="0.8" stroke-opacity="0.28"/><line x1="903.7" y1="216.4" x2="931.3" y2="215.4" stroke-width="0.8" stroke-opacity="0.38"/><line x1="903.7" y1="216.4" x2="930.3" y2="136.3" stroke-width="0.8" stroke-opacity="0.28"/><line x1="903.7" y1="216.4" x2="996.6" y2="187.5" stroke-width="0.8" stroke-opacity="0.26"/><line x1="381.3" y1="159.0" x2="382.7" y2="192.2" stroke-width="0.8" stroke-opacity="0.37"/><line x1="1021.6" y1="256.8" x2="996.6" y2="187.5" stroke-width="0.8" stroke-opacity="0.30"/><line x1="1021.6" y1="256.8" x2="955.0" y2="302.0" stroke-width="0.8" stroke-opacity="0.29"/><line x1="1021.6" y1="256.8" x2="1103.0" y2="280.0" stroke-width="0.8" stroke-opacity="0.28"/><line x1="1439.8" y1="203.3" x2="1386.7" y2="168.4" stroke-width="0.8" stroke-opacity="0.32"/><line x1="1439.8" y1="203.3" x2="1333.2" y2="118.7" stroke-width="0.8" stroke-opacity="0.20"/><line x1="175.0" y1="18.9" x2="33.8" y2="38.0" stroke-width="0.8" stroke-opacity="0.19"/><line x1="175.0" y1="18.9" x2="137.1" y2="218.1" stroke-width="0.8" stroke-opacity="0.09"/><line x1="175.0" y1="18.9" x2="26.1" y2="165.3" stroke-width="0.8" stroke-opacity="0.08"/><line x1="1254.5" y1="497.7" x2="1277.1" y2="504.1" stroke-width="0.8" stroke-opacity="0.38"/><line x1="1254.5" y1="497.7" x2="1224.0" y2="508.9" stroke-width="0.8" stroke-opacity="0.37"/><line x1="34.1" y1="282.8" x2="61.4" y2="353.6" stroke-width="0.8" stroke-opacity="0.30"/><line x1="34.1" y1="282.8" x2="26.1" y2="165.3" stroke-width="0.8" stroke-opacity="0.23"/><line x1="34.1" y1="282.8" x2="137.1" y2="218.1" stroke-width="0.8" stroke-opacity="0.22"/><line x1="623.6" y1="503.1" x2="622.7" y2="518.4" stroke-width="0.8" stroke-opacity="0.40"/><line x1="623.6" y1="503.1" x2="540.0" y2="522.4" stroke-width="0.8" stroke-opacity="0.28"/><line x1="352.4" y1="258.8" x2="332.3" y2="229.3" stroke-width="0.8" stroke-opacity="0.36"/><line x1="352.4" y1="258.8" x2="382.7" y2="192.2" stroke-width="0.8" stroke-opacity="0.30"/><line x1="61.4" y1="353.6" x2="137.1" y2="218.1" stroke-width="0.8" stroke-opacity="0.17"/><line x1="859.2" y1="9.8" x2="886.1" y2="81.9" stroke-width="0.8" stroke-opacity="0.30"/><line x1="859.2" y1="9.8" x2="964.0" y2="64.0" stroke-width="0.8" stroke-opacity="0.23"/><line x1="201.7" y1="509.2" x2="218.7" y2="487.6" stroke-width="0.8" stroke-opacity="0.38"/><line x1="201.7" y1="509.2" x2="162.0" y2="515.8" stroke-width="0.8" stroke-opacity="0.35"/><line x1="162.0" y1="515.8" x2="218.7" y2="487.6" stroke-width="0.8" stroke-opacity="0.32"/><line x1="622.7" y1="518.4" x2="540.0" y2="522.4" stroke-width="0.8" stroke-opacity="0.29"/><line x1="1093.6" y1="56.0" x2="1101.3" y2="25.0" stroke-width="0.8" stroke-opacity="0.37"/><line x1="1093.6" y1="56.0" x2="1073.6" y2="1.7" stroke-width="0.8" stroke-opacity="0.33"/><line x1="1093.6" y1="56.0" x2="1163.8" y2="42.1" stroke-width="0.8" stroke-opacity="0.30"/><line x1="643.4" y1="413.6" x2="719.2" y2="436.6" stroke-width="0.8" stroke-opacity="0.29"/><line x1="643.4" y1="413.6" x2="588.3" y2="351.4" stroke-width="0.8" stroke-opacity="0.29"/><line x1="1101.3" y1="25.0" x2="1073.6" y2="1.7" stroke-width="0.8" stroke-opacity="0.36"/><line x1="1101.3" y1="25.0" x2="1163.8" y2="42.1" stroke-width="0.8" stroke-opacity="0.32"/><line x1="1131.2" y1="250.3" x2="1103.0" y2="280.0" stroke-width="0.8" stroke-opacity="0.35"/><line x1="1131.2" y1="250.3" x2="1124.0" y2="172.3" stroke-width="0.8" stroke-opacity="0.29"/><line x1="1300.7" y1="98.4" x2="1333.2" y2="118.7" stroke-width="0.8" stroke-opacity="0.36"/><line x1="1300.7" y1="98.4" x2="1226.9" y2="108.0" stroke-width="0.8" stroke-opacity="0.30"/><line x1="1007.3" y1="130.9" x2="1031.0" y2="117.8" stroke-width="0.8" stroke-opacity="0.38"/><line x1="1007.3" y1="130.9" x2="996.6" y2="187.5" stroke-width="0.8" stroke-opacity="0.33"/><line x1="454.6" y1="288.9" x2="476.0" y2="307.0" stroke-width="0.8" stroke-opacity="0.37"/><line x1="454.6" y1="288.9" x2="484.0" y2="286.2" stroke-width="0.8" stroke-opacity="0.37"/><line x1="1122.2" y1="428.8" x2="1069.5" y2="344.3" stroke-width="0.8" stroke-opacity="0.26"/><line x1="1122.2" y1="428.8" x2="1028.5" y2="470.8" stroke-width="0.8" stroke-opacity="0.25"/><line x1="1122.2" y1="428.8" x2="1224.0" y2="508.9" stroke-width="0.8" stroke-opacity="0.21"/><line x1="1069.5" y1="344.3" x2="1103.0" y2="280.0" stroke-width="0.8" stroke-opacity="0.30"/><line x1="1028.5" y1="470.8" x2="1001.1" y2="555.4" stroke-width="0.8" stroke-opacity="0.28"/><line x1="884.5" y1="332.7" x2="901.1" y2="387.3" stroke-width="0.8" stroke-opacity="0.33"/><line x1="884.5" y1="332.7" x2="955.0" y2="302.0" stroke-width="0.8" stroke-opacity="0.30"/><line x1="773.0" y1="497.0" x2="766.3" y2="474.7" stroke-width="0.8" stroke-opacity="0.38"/><line x1="773.0" y1="497.0" x2="767.5" y2="459.3" stroke-width="0.8" stroke-opacity="0.36"/><line x1="773.0" y1="497.0" x2="745.2" y2="525.5" stroke-width="0.8" stroke-opacity="0.36"/><line x1="582.5" y1="52.9" x2="624.8" y2="80.6" stroke-width="0.8" stroke-opacity="0.34"/><line x1="582.5" y1="52.9" x2="604.1" y2="116.0" stroke-width="0.8" stroke-opacity="0.31"/><line x1="766.3" y1="474.7" x2="767.5" y2="459.3" stroke-width="0.8" stroke-opacity="0.40"/><line x1="766.3" y1="474.7" x2="745.2" y2="525.5" stroke-width="0.8" stroke-opacity="0.33"/><line x1="218.7" y1="487.6" x2="320.5" y2="447.9" stroke-width="0.8" stroke-opacity="0.24"/><line x1="964.0" y1="64.0" x2="930.3" y2="136.3" stroke-width="0.8" stroke-opacity="0.29"/><line x1="964.0" y1="64.0" x2="886.1" y2="81.9" stroke-width="0.8" stroke-opacity="0.29"/><line x1="588.3" y1="351.4" x2="626.4" y2="316.1" stroke-width="0.8" stroke-opacity="0.34"/><line x1="332.3" y1="229.3" x2="382.7" y2="192.2" stroke-width="0.8" stroke-opacity="0.32"/><line x1="886.1" y1="81.9" x2="930.3" y2="136.3" stroke-width="0.8" stroke-opacity="0.31"/><line x1="484.0" y1="286.2" x2="476.0" y2="307.0" stroke-width="0.8" stroke-opacity="0.38"/><line x1="484.0" y1="286.2" x2="517.8" y2="248.1" stroke-width="0.8" stroke-opacity="0.34"/><line x1="1226.9" y1="108.0" x2="1177.2" y2="52.3" stroke-width="0.8" stroke-opacity="0.30"/><line x1="1386.7" y1="168.4" x2="1333.2" y2="118.7" stroke-width="0.8" stroke-opacity="0.30"/><line x1="955.0" y1="302.0" x2="931.3" y2="215.4" stroke-width="0.8" stroke-opacity="0.28"/><line x1="320.5" y1="447.9" x2="347.5" y2="423.1" stroke-width="0.8" stroke-opacity="0.36"/><line x1="320.5" y1="447.9" x2="294.0" y2="398.0" stroke-width="0.8" stroke-opacity="0.33"/><line x1="320.5" y1="447.9" x2="429.3" y2="456.4" stroke-width="0.8" stroke-opacity="0.24"/><line x1="294.0" y1="398.0" x2="347.5" y2="423.1" stroke-width="0.8" stroke-opacity="0.32"/><line x1="294.0" y1="398.0" x2="266.7" y2="310.7" stroke-width="0.8" stroke-opacity="0.27"/><line x1="1365.4" y1="470.6" x2="1395.9" y2="449.7" stroke-width="0.8" stroke-opacity="0.36"/><line x1="1365.4" y1="470.6" x2="1334.8" y2="518.1" stroke-width="0.8" stroke-opacity="0.33"/><line x1="248.4" y1="241.6" x2="244.0" y2="283.7" stroke-width="0.8" stroke-opacity="0.35"/><line x1="248.4" y1="241.6" x2="266.7" y2="310.7" stroke-width="0.8" stroke-opacity="0.30"/><line x1="429.3" y1="456.4" x2="347.5" y2="423.1" stroke-width="0.8" stroke-opacity="0.28"/><line x1="1163.8" y1="42.1" x2="1177.2" y2="52.3" stroke-width="0.8" stroke-opacity="0.39"/><line x1="719.2" y1="436.6" x2="767.5" y2="459.3" stroke-width="0.8" stroke-opacity="0.33"/><line x1="476.0" y1="307.0" x2="517.8" y2="248.1" stroke-width="0.8" stroke-opacity="0.30"/><line x1="745.2" y1="525.5" x2="793.8" y2="535.4" stroke-width="0.8" stroke-opacity="0.34"/><line x1="244.0" y1="283.7" x2="266.7" y2="310.7" stroke-width="0.8" stroke-opacity="0.36"/><line x1="931.3" y1="215.4" x2="996.6" y2="187.5" stroke-width="0.8" stroke-opacity="0.31"/><line x1="604.1" y1="116.0" x2="624.8" y2="80.6" stroke-width="0.8" stroke-opacity="0.35"/><line x1="624.8" y1="80.6" x2="518.4" y2="109.9" stroke-width="0.8" stroke-opacity="0.24"/><line x1="26.1" y1="165.3" x2="137.1" y2="218.1" stroke-width="0.8" stroke-opacity="0.22"/><line x1="1205.6" y1="290.0" x2="1235.6" y2="245.8" stroke-width="0.8" stroke-opacity="0.33"/><line x1="1205.6" y1="290.0" x2="1281.9" y2="331.0" stroke-width="0.8" stroke-opacity="0.28"/><line x1="1307.4" y1="402.2" x2="1281.9" y2="331.0" stroke-width="0.8" stroke-opacity="0.30"/><line x1="1124.0" y1="172.3" x2="1173.2" y2="164.6" stroke-width="0.8" stroke-opacity="0.34"/><line x1="1281.9" y1="331.0" x2="1344.9" y2="308.1" stroke-width="0.8" stroke-opacity="0.31"/><line x1="1344.9" y1="308.1" x2="1235.6" y2="245.8" stroke-width="0.8" stroke-opacity="0.22"/></g><g fill="#C9A227"><circle cx="524.8" cy="183.0" r="1.4" fill-opacity="0.59"/><circle cx="591.5" cy="263.1" r="2.4" fill-opacity="0.42"/><circle cx="555.0" cy="444.4" r="2.0" fill-opacity="0.42"/><circle cx="172.6" cy="229.7" r="2.2" fill-opacity="0.35"/><circle cx="1224.8" cy="171.4" r="2.1" fill-opacity="0.56"/><circle cx="532.0" cy="164.0" r="2.5" fill-opacity="0.40"/><circle cx="1286.6" cy="545.3" r="1.1" fill-opacity="0.55"/><circle cx="421.2" cy="114.6" r="2.5" fill-opacity="0.39"/><circle cx="1420.1" cy="518.8" r="2.1" fill-opacity="0.33"/><circle cx="903.7" cy="216.4" r="1.6" fill-opacity="0.34"/><circle cx="381.3" cy="159.0" r="5.5" fill-opacity="0.91"/><circle cx="381.8" cy="75.8" r="2.0" fill-opacity="0.43"/><circle cx="1021.6" cy="256.8" r="2.2" fill-opacity="0.32"/><circle cx="1439.8" cy="203.3" r="1.0" fill-opacity="0.42"/><circle cx="175.0" cy="18.9" r="2.6" fill-opacity="0.50"/><circle cx="1254.5" cy="497.7" r="5.2" fill-opacity="0.91"/><circle cx="1277.1" cy="504.1" r="1.4" fill-opacity="0.57"/><circle cx="34.1" cy="282.8" r="5.3" fill-opacity="0.82"/><circle cx="623.6" cy="503.1" r="1.8" fill-opacity="0.60"/><circle cx="352.4" cy="258.8" r="2.3" fill-opacity="0.42"/><circle cx="61.4" cy="353.6" r="2.3" fill-opacity="0.54"/><circle cx="859.2" cy="9.8" r="1.4" fill-opacity="0.39"/><circle cx="201.7" cy="509.2" r="2.0" fill-opacity="0.54"/><circle cx="162.0" cy="515.8" r="1.2" fill-opacity="0.47"/><circle cx="622.7" cy="518.4" r="2.6" fill-opacity="0.34"/><circle cx="1093.6" cy="56.0" r="4.6" fill-opacity="0.70"/><circle cx="643.4" cy="413.6" r="2.0" fill-opacity="0.59"/><circle cx="1101.3" cy="25.0" r="2.2" fill-opacity="0.67"/><circle cx="1131.2" cy="250.3" r="1.9" fill-opacity="0.50"/><circle cx="1300.7" cy="98.4" r="2.3" fill-opacity="0.33"/><circle cx="1007.3" cy="130.9" r="1.8" fill-opacity="0.64"/><circle cx="454.6" cy="288.9" r="2.4" fill-opacity="0.44"/><circle cx="1122.2" cy="428.8" r="2.3" fill-opacity="0.51"/><circle cx="1069.5" cy="344.3" r="1.7" fill-opacity="0.56"/><circle cx="1028.5" cy="470.8" r="1.3" fill-opacity="0.44"/><circle cx="884.5" cy="332.7" r="1.8" fill-opacity="0.44"/><circle cx="773.0" cy="497.0" r="1.3" fill-opacity="0.65"/><circle cx="582.5" cy="52.9" r="1.5" fill-opacity="0.65"/><circle cx="1001.1" cy="555.4" r="1.4" fill-opacity="0.33"/><circle cx="766.3" cy="474.7" r="2.0" fill-opacity="0.39"/><circle cx="218.7" cy="487.6" r="2.2" fill-opacity="0.52"/><circle cx="964.0" cy="64.0" r="2.1" fill-opacity="0.33"/><circle cx="588.3" cy="351.4" r="1.3" fill-opacity="0.50"/><circle cx="332.3" cy="229.3" r="1.1" fill-opacity="0.55"/><circle cx="886.1" cy="81.9" r="2.3" fill-opacity="0.51"/><circle cx="626.4" cy="316.1" r="0.9" fill-opacity="0.64"/><circle cx="484.0" cy="286.2" r="2.0" fill-opacity="0.58"/><circle cx="1226.9" cy="108.0" r="2.4" fill-opacity="0.54"/><circle cx="1386.7" cy="168.4" r="3.2" fill-opacity="0.85"/><circle cx="955.0" cy="302.0" r="2.2" fill-opacity="0.50"/><circle cx="320.5" cy="447.9" r="1.0" fill-opacity="0.34"/><circle cx="294.0" cy="398.0" r="2.2" fill-opacity="0.35"/><circle cx="1103.0" cy="280.0" r="2.2" fill-opacity="0.45"/><circle cx="1365.4" cy="470.6" r="0.9" fill-opacity="0.46"/><circle cx="1271.3" cy="169.3" r="0.9" fill-opacity="0.69"/><circle cx="248.4" cy="241.6" r="1.0" fill-opacity="0.32"/><circle cx="930.3" cy="136.3" r="2.5" fill-opacity="0.32"/><circle cx="429.3" cy="456.4" r="1.1" fill-opacity="0.57"/><circle cx="901.1" cy="387.3" r="2.3" fill-opacity="0.55"/><circle cx="1163.8" cy="42.1" r="2.2" fill-opacity="0.60"/><circle cx="719.2" cy="436.6" r="2.5" fill-opacity="0.54"/><circle cx="476.0" cy="307.0" r="1.3" fill-opacity="0.55"/><circle cx="745.2" cy="525.5" r="4.5" fill-opacity="0.90"/><circle cx="244.0" cy="283.7" r="1.5" fill-opacity="0.61"/><circle cx="931.3" cy="215.4" r="1.3" fill-opacity="0.56"/><circle cx="604.1" cy="116.0" r="1.9" fill-opacity="0.52"/><circle cx="517.8" cy="248.1" r="1.0" fill-opacity="0.50"/><circle cx="624.8" cy="80.6" r="1.6" fill-opacity="0.37"/><circle cx="793.8" cy="535.4" r="1.4" fill-opacity="0.47"/><circle cx="744.9" cy="306.3" r="0.8" fill-opacity="0.38"/><circle cx="26.1" cy="165.3" r="5.2" fill-opacity="0.84"/><circle cx="1205.6" cy="290.0" r="2.4" fill-opacity="0.57"/><circle cx="1307.4" cy="402.2" r="1.9" fill-opacity="0.42"/><circle cx="1124.0" cy="172.3" r="1.4" fill-opacity="0.39"/><circle cx="1281.9" cy="331.0" r="5.1" fill-opacity="0.90"/><circle cx="1344.9" cy="308.1" r="1.0" fill-opacity="0.64"/><circle cx="540.0" cy="522.4" r="4.6" fill-opacity="0.76"/><circle cx="518.4" cy="109.9" r="1.4" fill-opacity="0.56"/><circle cx="266.7" cy="310.7" r="2.5" fill-opacity="0.69"/><circle cx="1235.6" cy="245.8" r="1.2" fill-opacity="0.68"/><circle cx="137.1" cy="218.1" r="1.8" fill-opacity="0.52"/><circle cx="33.8" cy="38.0" r="1.1" fill-opacity="0.65"/><circle cx="1334.8" cy="518.1" r="1.7" fill-opacity="0.49"/><circle cx="1395.9" cy="449.7" r="1.9" fill-opacity="0.36"/><circle cx="1224.0" cy="508.9" r="2.6" fill-opacity="0.37"/><circle cx="767.5" cy="459.3" r="2.0" fill-opacity="0.35"/><circle cx="1073.6" cy="1.7" r="1.2" fill-opacity="0.31"/><circle cx="996.6" cy="187.5" r="1.4" fill-opacity="0.33"/><circle cx="468.4" cy="195.0" r="3.2" fill-opacity="0.78"/><circle cx="1031.0" cy="117.8" r="2.0" fill-opacity="0.31"/><circle cx="1177.2" cy="52.3" r="2.4" fill-opacity="0.51"/><circle cx="347.5" cy="423.1" r="1.0" fill-opacity="0.50"/><circle cx="382.7" cy="192.2" r="1.9" fill-opacity="0.60"/><circle cx="1333.2" cy="118.7" r="0.9" fill-opacity="0.59"/><circle cx="1173.2" cy="164.6" r="0.8" fill-opacity="0.56"/></g></svg>